HIERARCHY
ROOT Hips
{
	OFFSET -0.001795 -0.223333 0.028219
	CHANNELS 6 Xposition Yposition Zposition Zrotation Yrotation Xrotation 
	JOINT LeftUpLeg
	{
		OFFSET 0.069520 -0.091406 -0.006815
		CHANNELS 3 Zrotation Yrotation Xrotation
		JOINT LeftLeg
		{
			OFFSET 0.034277 -0.375199 -0.004496
			CHANNELS 3 Zrotation Yrotation Xrotation
			JOINT LeftFoot
			{
				OFFSET -0.013596 -0.397961 -0.043693
				CHANNELS 3 Zrotation Yrotation Xrotation
				JOINT LeftToe
				{
					OFFSET 0.026358 -0.055791 0.119288
					CHANNELS 3 Zrotation Yrotation Xrotation
					End Site
					{
						OFFSET 0.000000 0.000000 0.000000
					}
				}
			}
		}
	}
	JOINT RightUpLeg
	{
		OFFSET -0.067670 -0.090522 -0.004320
		CHANNELS 3 Zrotation Yrotation Xrotation
		JOINT RightLeg
		{
			OFFSET -0.038290 -0.382569 -0.008850
			CHANNELS 3 Zrotation Yrotation Xrotation
			JOINT RightFoot
			{
				OFFSET 0.015774 -0.398415 -0.042312
				CHANNELS 3 Zrotation Yrotation Xrotation
				JOINT RightToe
				{
					OFFSET -0.025372 -0.048144 0.123348
					CHANNELS 3 Zrotation Yrotation Xrotation
					End Site
					{
						OFFSET 0.000000 0.000000 0.000000
					}
				}
			}
		}
	}
	JOINT Spine
	{
		OFFSET -0.002533 0.108963 -0.026696
		CHANNELS 3 Zrotation Yrotation Xrotation
		JOINT Spine1
		{
			OFFSET 0.005487 0.135180 0.001092
			CHANNELS 3 Zrotation Yrotation Xrotation
			JOINT Spine2
			{
				OFFSET 0.001457 0.052922 0.025425
				CHANNELS 3 Zrotation Yrotation Xrotation
				JOINT Neck
				{
					OFFSET -0.002778 0.213870 -0.042857
					CHANNELS 3 Zrotation Yrotation Xrotation
					JOINT Head
					{
						OFFSET 0.005152 0.064970 0.051349
						CHANNELS 3 Zrotation Yrotation Xrotation
						End Site
						{
							OFFSET 0.000000 0.000000 0.000000
						}
					}
				}
				JOINT LeftShoulder
				{
					OFFSET 0.078845 0.121749 -0.034090
					CHANNELS 3 Zrotation Yrotation Xrotation
					JOINT LeftArm
					{
						OFFSET 0.090977 0.030469 -0.008868
						CHANNELS 3 Zrotation Yrotation Xrotation
						JOINT LeftForeArm
						{
							OFFSET 0.259612 -0.012772 -0.027456
							CHANNELS 3 Zrotation Yrotation Xrotation
							JOINT LeftHand
							{
								OFFSET 0.249234 0.008986 -0.001171
								CHANNELS 3 Zrotation Yrotation Xrotation
								End Site
								{
									OFFSET 0.000000 0.000000 0.000000
								}
							}
						}
					}
				}
				JOINT RightShoulder
				{
					OFFSET -0.081759 0.118833 -0.038615
					CHANNELS 3 Zrotation Yrotation Xrotation
					JOINT RightArm
					{
						OFFSET -0.096012 0.032551 -0.009143
						CHANNELS 3 Zrotation Yrotation Xrotation
						JOINT RightForeArm
						{
							OFFSET -0.253742 -0.013329 -0.021401
							CHANNELS 3 Zrotation Yrotation Xrotation
							JOINT RightHand
							{
								OFFSET -0.255298 0.007772 -0.005559
								CHANNELS 3 Zrotation Yrotation Xrotation
								End Site
								{
									OFFSET 0.000000 0.000000 0.000000
								}
							}
						}
					}
				}
			}
		}
	}
}
MOTION
Frames: 13
Frame Time: 0.050000
0.000000 0.919403 0.000000 -1.228548 -2.147050 8.915896 6.693524 -0.675007 -16.689592 -7.952606 1.616548 16.523753 11.534992 23.768964 -0.787196 0.000000 0.000000 0.000000 -9.532493 1.058871 -27.846161 5.774946 -0.707722 16.890826 -5.890063 -15.413656 3.387190 0.000000 0.000000 0.000000 7.753522 -2.745974 23.172089 -6.118485 2.078602 -19.969838 -1.748927 3.341802 29.919151 15.076285 -5.661950 -32.113391 0.000000 0.000000 0.000000 -12.852840 -6.954879 2.519884 -52.338143 8.894482 -12.327638 -58.162386 -48.100168 31.240132 0.000000 0.000000 0.000000 20.245965 -5.628352 -3.881775 48.438386 -12.997686 -11.825876 71.826330 45.495191 36.882113 0.000000 0.000000 0.000000 
-0.023234 0.914877 0.013553 -2.019032 -2.226828 9.729688 8.952834 -0.407083 -16.174677 -8.073450 1.704227 17.344938 12.934344 26.515825 -0.694841 0.000000 0.000000 0.000000 -7.477677 1.500682 -28.125317 5.563670 -0.648056 17.734629 -5.369039 -14.038095 1.884702 0.000000 0.000000 0.000000 8.324746 -2.996259 23.962548 -4.438546 1.632068 -19.018515 -1.541059 3.330458 28.342442 14.499703 -4.739423 -34.594842 0.000000 0.000000 0.000000 -15.324620 -6.406422 2.182734 -50.850372 7.370339 -11.155202 -58.228463 -47.644267 30.821739 0.000000 0.000000 0.000000 21.082973 -5.151285 -3.807235 47.803756 -14.191992 -11.872005 71.706639 44.910188 35.916663 0.000000 0.000000 0.000000 
-0.046550 0.912079 0.027667 -1.557866 -2.266355 9.644578 9.674528 -0.321952 -15.699745 -7.752547 1.683853 18.612097 13.242419 27.116737 -0.762467 0.000000 0.000000 0.000000 -6.856143 1.573826 -27.204210 6.840514 -0.977043 18.114294 -6.437881 -16.246057 -0.150266 0.000000 0.000000 0.000000 9.669929 -3.351615 24.173711 -4.713462 1.708651 -18.826660 -2.940676 2.408039 28.697829 14.545257 -4.832593 -35.042660 0.000000 0.000000 0.000000 -15.486393 -6.803569 2.622783 -51.838332 6.490686 -11.097033 -54.556236 -47.786712 29.199660 0.000000 0.000000 0.000000 22.582527 -5.547366 -4.509210 47.161909 -14.373024 -11.775087 68.920564 41.896187 31.481302 0.000000 0.000000 0.000000 
-0.069076 0.909216 0.042460 -1.615932 -2.788552 9.211697 11.090325 -0.125759 -15.832314 -8.384961 2.100902 21.860871 13.636717 27.734934 -0.010553 0.000000 0.000000 0.000000 -5.452779 1.858288 -27.010441 7.256280 -1.083592 20.017703 -6.449624 -16.021308 -1.920590 0.000000 0.000000 0.000000 10.517482 -3.680380 25.460411 -5.168823 1.807259 -19.802797 -2.927171 1.646018 29.461834 13.462159 -4.578287 -34.697337 0.000000 0.000000 0.000000 -17.076397 -7.842882 3.468795 -51.423549 6.590541 -11.155962 -52.060131 -47.686188 27.990313 0.000000 0.000000 0.000000 23.485609 -3.899261 -3.922832 46.563430 -14.766256 -11.786890 66.233947 42.347371 30.027975 0.000000 0.000000 0.000000 
-0.089992 0.907040 0.057666 -2.090694 -4.051780 8.361708 12.339593 0.137602 -16.447118 -7.897958 2.445730 27.793016 13.717641 27.488042 1.997635 0.000000 0.000000 0.000000 -3.059396 2.297845 -26.073457 6.956840 -0.920034 21.133774 -6.855064 -16.607240 -4.365281 0.000000 0.000000 0.000000 10.955026 -3.819734 26.649641 -5.193246 1.798634 -19.588550 -3.270676 1.496637 29.340105 13.026849 -4.867239 -32.820637 0.000000 0.000000 0.000000 -17.293518 -7.899129 3.691453 -51.769638 6.343219 -11.164698 -52.324012 -46.577267 27.649854 0.000000 0.000000 0.000000 23.146088 -3.646339 -3.954818 47.448367 -14.868292 -12.073159 66.378744 39.024003 27.426057 0.000000 0.000000 0.000000 
-0.107604 0.905443 0.073687 -2.159498 -4.544029 7.911696 12.421265 0.265709 -18.656805 -7.769397 2.977517 34.755441 13.569020 26.937361 3.252990 0.000000 0.000000 0.000000 -1.897936 2.456459 -25.362586 6.673488 -0.803709 22.446930 -6.783836 -16.118761 -5.633426 0.000000 0.000000 0.000000 10.712877 -3.785564 27.403387 -4.726899 1.662542 -20.063119 -2.874703 1.759303 29.486788 11.911172 -4.209677 -33.381039 0.000000 0.000000 0.000000 -18.070651 -8.772602 4.197223 -51.433152 5.887198 -10.934358 -52.851284 -44.399531 26.542000 0.000000 0.000000 0.000000 21.827787 -3.215939 -3.492241 49.009708 -15.371132 -12.738476 67.191550 37.593733 26.830030 0.000000 0.000000 0.000000 
-0.120961 0.904317 0.089514 -2.875214 -5.813108 7.819856 13.306175 0.677705 -22.102562 -8.484651 4.257073 42.152291 14.795843 28.165463 7.316056 0.000000 0.000000 0.000000 -0.092724 2.831133 -25.292024 6.194734 -0.538641 24.476081 -6.919586 -16.238744 -6.286350 0.000000 0.000000 0.000000 11.320756 -3.838122 27.396511 -5.594886 1.863179 -20.265737 -2.247538 2.568817 29.484698 10.727093 -3.821984 -32.108981 0.000000 0.000000 0.000000 -18.425363 -8.235107 3.896618 -50.545180 6.864835 -11.145372 -54.673379 -42.578597 26.256345 0.000000 0.000000 0.000000 22.050918 -3.716881 -3.775749 47.339934 -15.803068 -12.442090 68.195178 34.494063 24.821647 0.000000 0.000000 0.000000 
-0.130123 0.903380 0.105566 -2.598740 -5.424815 7.419560 12.312608 0.621017 -25.690785 -9.210142 5.188567 47.988560 15.122476 28.674699 7.173400 0.000000 0.000000 0.000000 -0.022930 2.784794 -24.996414 6.808892 -0.752070 26.520543 -7.165092 -16.887383 -6.690520 0.000000 0.000000 0.000000 11.059900 -3.769527 27.228944 -4.484695 1.578749 -20.277854 -2.248902 3.443974 29.489091 10.014490 -3.377778 -31.464716 0.000000 0.000000 0.000000 -19.862777 -8.920173 4.020956 -48.751496 8.335914 -11.233072 -57.306022 -42.045179 26.874245 0.000000 0.000000 0.000000 20.810534 -4.186678 -3.562220 47.619406 -16.490248 -12.809068 69.760394 32.258976 24.090732 0.000000 0.000000 0.000000 
-0.135886 0.903020 0.122036 -2.409918 -5.824783 6.819359 11.221375 0.558150 -29.054755 -11.557344 6.963129 50.024302 16.203850 30.449960 6.599545 0.000000 0.000000 0.000000 0.458779 2.808299 -24.420112 6.421279 -0.553341 28.974183 -7.041866 -16.344275 -7.334885 0.000000 0.000000 0.000000 10.701274 -3.685596 27.794935 -4.746656 1.636110 -20.860077 -1.173140 4.759257 29.855398 9.688774 -3.118789 -31.036279 0.000000 0.000000 0.000000 -20.541888 -8.723521 3.602290 -46.973396 9.983152 -11.386663 -59.507165 -41.757010 27.427783 0.000000 0.000000 0.000000 20.383266 -4.720391 -3.468755 46.367403 -18.209134 -13.137635 70.658382 30.543859 23.347664 0.000000 0.000000 0.000000 
-0.139547 0.904133 0.138963 -2.022295 -5.911132 6.017898 9.425091 0.187506 -31.520599 -12.138460 6.904642 47.557014 16.751647 31.068850 7.427950 0.000000 0.000000 0.000000 0.591980 2.670670 -23.193458 6.190980 -0.438371 30.171089 -7.244373 -16.833951 -7.458078 0.000000 0.000000 0.000000 10.083008 -3.548063 28.439526 -4.774205 1.643178 -21.482145 -0.826184 6.482642 30.142303 9.847515 -3.102244 -29.806286 0.000000 0.000000 0.000000 -20.183931 -8.930718 3.201883 -45.984716 11.069877 -11.420570 -61.026705 -40.709508 26.985127 0.000000 0.000000 0.000000 20.053015 -5.185401 -3.230800 46.728867 -18.825292 -13.520363 70.191910 29.803396 23.126802 0.000000 0.000000 0.000000 
-0.141252 0.906149 0.155810 -1.659557 -5.129318 5.259826 7.602195 -0.380165 -33.392586 -12.346595 5.846683 41.020719 16.173685 30.148902 7.510673 0.000000 0.000000 0.000000 0.502648 2.445560 -21.773002 5.878846 -0.402262 30.696759 -7.401728 -17.378476 -7.119000 0.000000 0.000000 0.000000 9.882785 -3.580349 28.867645 -4.786041 1.663137 -21.748495 -1.142776 7.322802 30.089404 9.900444 -2.976276 -29.508849 0.000000 0.000000 0.000000 -19.242285 -8.029927 2.346177 -44.496025 12.380919 -11.416799 -63.500655 -39.359359 26.802591 0.000000 0.000000 0.000000 20.960263 -4.972649 -2.812711 44.552298 -19.458851 -13.115474 71.846168 29.474084 23.737734 0.000000 0.000000 0.000000 
-0.141220 0.905928 0.172601 -1.571395 -4.729535 4.360621 6.532851 -0.735917 -34.090091 -12.190356 4.581275 32.355586 16.206595 29.934704 8.652215 0.000000 0.000000 0.000000 0.437259 2.188057 -19.860504 6.191850 -0.568165 30.537751 -7.739058 -18.267065 -7.542596 0.000000 0.000000 0.000000 8.725156 -3.355538 29.725186 -4.413959 1.576095 -22.345471 -0.037403 9.088891 30.510213 10.163815 -2.914944 -28.715115 0.000000 0.000000 0.000000 -19.337417 -8.179188 1.845347 -42.614021 13.937966 -11.285927 -65.494950 -38.093013 26.199837 0.000000 0.000000 0.000000 20.647559 -5.878063 -2.786027 43.309835 -19.061522 -12.659748 72.766421 28.920262 24.199293 0.000000 0.000000 0.000000 
-0.139598 0.905544 0.189641 -1.341371 -3.489517 3.668363 4.989169 -1.325868 -33.685845 -10.836663 3.045765 23.858974 15.164507 28.112346 10.259671 0.000000 0.000000 0.000000 0.165272 1.835772 -17.388796 6.706105 -0.907133 29.976948 -8.362327 -20.111937 -8.218662 0.000000 0.000000 0.000000 8.308286 -3.382012 30.237072 -4.773721 1.686858 -22.819365 0.139599 8.823814 30.636193 10.314049 -3.009041 -28.343539 0.000000 0.000000 0.000000 -17.981827 -7.668568 1.548303 -42.897667 16.141736 -12.127162 -67.356439 -37.775366 26.681024 0.000000 0.000000 0.000000 20.287300 -5.406114 -2.373460 43.082480 -19.214570 -12.648321 73.474480 29.091430 24.749903 0.000000 0.000000 0.000000 
